<svg xmlns="http://www.w3.org/2000/svg" width="167" height="17" viewBox="0 0 167 17">
  <path fill="#FFF" fill-rule="evenodd" d="M94.3760004,45.6769975 C94.544667,45.5083309 94.7280004,45.4093308 94.9260005,45.3799974 C95.1240005,45.350664 95.3110005,45.3359974 95.4870006,45.3359974 L99.5460012,45.3359974 C100.536001,45.3359974 101.395835,45.5009975 102.125502,45.8309975 C102.855168,46.1609976 103.484002,46.6596643 104.012002,47.3269978 C104.283335,47.6789978 104.497835,48.0511645 104.655502,48.4434979 C104.813169,48.8358314 104.928669,49.2648315 105.002002,49.7304982 C105.075336,50.1961648 105.121169,50.7113317 105.139502,51.2759984 C105.157836,51.8406651 105.167002,52.471332 105.167002,53.1679987 C105.167002,53.8646654 105.157836,54.4953323 105.139502,55.059999 C105.121169,55.6246657 105.071669,56.1434992 104.991002,56.6164993 C104.910336,57.0894994 104.791169,57.522166 104.633502,57.9144995 C104.475835,58.3068329 104.261335,58.6789996 103.990002,59.0309997 C103.462002,59.7056664 102.836835,60.2024999 102.114502,60.5214999 C101.392168,60.8405 100.536001,61 99.5460012,61 L95.4870006,61 C95.3110005,61 95.1240005,60.9853334 94.9260005,60.956 C94.7280004,60.9266666 94.544667,60.8276666 94.3760004,60.6589999 C94.2073338,60.4903333 94.1083337,60.3069999 94.0790003,60.1089999 C94.0496669,59.9109998 94.0350003,59.7239998 94.0350003,59.5479998 L94.0350003,46.7879977 C94.0350003,46.6119976 94.0496669,46.4249976 94.0790003,46.2269976 C94.1083337,46.0289975 94.2073338,45.8456641 94.3760004,45.6769975 Z M96.4110007,58.8879997 L99.2710012,58.8879997 C99.8430013,58.8879997 100.352668,58.8054996 100.800001,58.6404996 C101.247335,58.4754996 101.636002,58.2023329 101.966002,57.8209995 C102.164002,57.6009994 102.318002,57.3443328 102.428002,57.0509994 C102.538002,56.7576659 102.620502,56.4203326 102.675502,56.0389992 C102.730502,55.6576657 102.763502,55.2286657 102.774502,54.751999 C102.785502,54.2753323 102.791002,53.7473322 102.791002,53.1679987 C102.791002,52.5886652 102.785502,52.0606651 102.774502,51.5839985 C102.763502,51.1073318 102.730502,50.6783317 102.675502,50.2969982 C102.620502,49.9156648 102.538002,49.5783315 102.428002,49.2849981 C102.318002,48.9916646 102.164002,48.734998 101.966002,48.514998 C101.636002,48.1336645 101.247335,47.8604978 100.800001,47.6954978 C100.352668,47.5304978 99.8430013,47.4479978 99.2710012,47.4479978 L96.4110007,47.4479978 L96.4110007,58.8879997 Z M111.063001,59.4709997 L111.063001,46.8649977 C111.063001,46.718331 111.061167,46.5936642 111.057501,46.4909976 C111.053834,46.388331 111.046501,46.2984976 111.035501,46.2214976 C111.024501,46.1444976 111.008001,46.0729976 110.986001,46.0069975 C110.964001,45.9409975 110.931001,45.8676641 110.887001,45.7869975 C110.799001,45.6256641 110.667001,45.4954975 110.491001,45.3964974 C110.315001,45.2974974 110.109667,45.2479974 109.875001,45.2479974 C109.640334,45.2479974 109.435,45.2974974 109.259,45.3964974 C109.083,45.4954975 108.951,45.6256641 108.863,45.7869975 C108.819,45.8676641 108.786,45.9409975 108.764,46.0069975 C108.742,46.0729976 108.7255,46.1444976 108.7145,46.2214976 C108.7035,46.2984976 108.696167,46.388331 108.6925,46.4909976 C108.688834,46.5936642 108.687,46.718331 108.687,46.8649977 L108.687,59.4709997 C108.687,59.6176664 108.688834,59.7423332 108.6925,59.8449998 C108.696167,59.9476664 108.7035,60.0374998 108.7145,60.1144999 C108.7255,60.1914999 108.742,60.2648333 108.764,60.3344999 C108.786,60.4041665 108.819,60.4756665 108.863,60.5489999 C108.951,60.7103333 109.083,60.8405 109.259,60.9395 C109.435,61.0385 109.640334,61.088 109.875001,61.088 C110.109667,61.088 110.315001,61.0385 110.491001,60.9395 C110.667001,60.8405 110.799001,60.7103333 110.887001,60.5489999 C110.931001,60.4756665 110.964001,60.4041665 110.986001,60.3344999 C111.008001,60.2648333 111.024501,60.1914999 111.035501,60.1144999 C111.046501,60.0374998 111.053834,59.9476664 111.057501,59.8449998 C111.061167,59.7423332 111.063001,59.6176664 111.063001,59.4709997 Z M116.959001,53.1679987 C116.959001,52.4199986 116.968167,51.7874985 116.986501,51.2704984 C117.004834,50.7534983 117.047001,50.3116649 117.113001,49.9449982 C117.179001,49.5783315 117.274334,49.2666647 117.399001,49.009998 C117.523667,48.7533314 117.688667,48.514998 117.894001,48.2949979 C118.180001,47.9869979 118.511834,47.7468312 118.889501,47.5744978 C119.267168,47.4021644 119.687001,47.3159978 120.149001,47.3159978 C120.882335,47.3159978 121.480001,47.5029978 121.942001,47.8769978 C122.404002,48.2509979 122.778002,48.7716646 123.064002,49.4389981 C123.152002,49.6443315 123.240002,49.8184982 123.328002,49.9614982 C123.416002,50.1044982 123.522335,50.2273316 123.647002,50.3299983 C123.727668,50.3959983 123.828502,50.4509983 123.949502,50.4949983 C124.070502,50.5389983 124.204335,50.5609983 124.351002,50.5609983 C124.666335,50.5609983 124.941335,50.4509983 125.176002,50.2309982 C125.286002,50.1209982 125.366669,49.9963316 125.418002,49.8569982 C125.469335,49.7176648 125.495002,49.5453315 125.495002,49.3399981 C125.495002,49.2006647 125.473002,49.0356646 125.429002,48.844998 C125.385002,48.6543314 125.317169,48.4489979 125.225502,48.2289979 C125.133835,48.0089979 125.011002,47.7779978 124.857002,47.5359978 C124.703002,47.2939978 124.516002,47.0556643 124.296002,46.8209977 C124.054002,46.564331 123.797335,46.3351642 123.526002,46.1334976 C123.254668,45.9318309 122.954002,45.7631641 122.624002,45.6274975 C122.294002,45.4918308 121.929168,45.3873308 121.529501,45.3139974 C121.129835,45.240664 120.684335,45.2039974 120.193001,45.2039974 C119.335001,45.2039974 118.574168,45.3433308 117.910501,45.6219975 C117.246834,45.9006641 116.662001,46.2929976 116.156001,46.7989977 C115.774667,47.1803311 115.4795,47.5726644 115.2705,47.9759979 C115.0615,48.3793313 114.905667,48.828498 114.803,49.3234981 C114.700334,49.8184982 114.638,50.3776649 114.616,51.0009984 C114.594,51.6243319 114.583,52.3466652 114.583,53.1679987 C114.583,53.9893322 114.594,54.7116656 114.616,55.3349991 C114.638,55.9583326 114.700334,56.5174993 114.803,57.0124993 C114.905667,57.5074994 115.0615,57.9566661 115.2705,58.3599996 C115.4795,58.763333 115.774667,59.1556663 116.156001,59.5369998 C116.662001,60.0429998 117.248667,60.4353333 117.916001,60.714 C118.583334,60.9926666 119.349668,61.132 120.215001,61.132 C121.051001,61.132 121.791668,61 122.437002,60.736 C123.082335,60.4719999 123.680002,60.0649998 124.230002,59.5149998 C124.538002,59.2069997 124.787335,58.8879997 124.978002,58.5579996 C125.168669,58.2279995 125.319002,57.8613329 125.429002,57.4579994 C125.539002,57.054666 125.614169,56.6036659 125.654502,56.1049992 C125.694835,55.6063325 125.715002,55.037999 125.715002,54.3999989 L125.715002,54.1689989 C125.715002,53.9929989 125.700335,53.8059988 125.671002,53.6079988 C125.641669,53.4099988 125.542669,53.2266653 125.374002,53.0579987 C125.205335,52.8893321 125.022002,52.790332 124.824002,52.7609986 C124.626002,52.7316653 124.439002,52.7169986 124.263002,52.7169986 L121.447001,52.7169986 C121.190335,52.7169986 120.996001,52.7261653 120.864001,52.7444986 C120.732001,52.762832 120.603668,52.8049987 120.479001,52.8709987 C120.332335,52.9516653 120.215001,53.0689987 120.127001,53.2229987 C120.039001,53.3769988 119.995001,53.5603322 119.995001,53.7729988 C119.995001,53.9856655 120.039001,54.1689989 120.127001,54.3229989 C120.215001,54.4769989 120.332335,54.5943323 120.479001,54.674999 C120.603668,54.740999 120.732001,54.7831656 120.864001,54.801499 C120.996001,54.8198324 121.190335,54.828999 121.447001,54.828999 L123.427002,54.828999 C123.427002,55.2396657 123.414168,55.6044991 123.388502,55.9234992 C123.362835,56.2424992 123.317002,56.5303327 123.251002,56.7869993 C123.185002,57.043666 123.095168,57.2764994 122.981502,57.4854994 C122.867835,57.6944995 122.719335,57.8906661 122.536002,58.0739995 C122.228001,58.3819996 121.879668,58.6166662 121.491001,58.7779996 C121.102335,58.9393331 120.677001,59.0199997 120.215001,59.0199997 C119.731001,59.0199997 119.292834,58.9338331 118.900501,58.7614996 C118.508167,58.5891662 118.169001,58.3489996 117.883001,58.0409995 C117.685001,57.8356661 117.525501,57.6119994 117.404501,57.3699994 C117.283501,57.1279994 117.190001,56.8254993 117.124001,56.4624993 C117.058001,56.0994992 117.014001,55.6539991 116.992001,55.125999 C116.970001,54.597999 116.959001,53.9453322 116.959001,53.1679987 Z M131.611001,59.4709997 L131.611001,46.8649977 C131.611001,46.718331 131.609167,46.5936642 131.605501,46.4909976 C131.601834,46.388331 131.594501,46.2984976 131.583501,46.2214976 C131.572501,46.1444976 131.556001,46.0729976 131.534001,46.0069975 C131.512001,45.9409975 131.479001,45.8676641 131.435001,45.7869975 C131.347001,45.6256641 131.215001,45.4954975 131.039001,45.3964974 C130.863001,45.2974974 130.657667,45.2479974 130.423001,45.2479974 C130.188334,45.2479974 129.983,45.2974974 129.807,45.3964974 C129.631,45.4954975 129.499,45.6256641 129.411,45.7869975 C129.367,45.8676641 129.334,45.9409975 129.312,46.0069975 C129.29,46.0729976 129.2735,46.1444976 129.2625,46.2214976 C129.2515,46.2984976 129.244167,46.388331 129.2405,46.4909976 C129.236834,46.5936642 129.235,46.718331 129.235,46.8649977 L129.235,59.4709997 C129.235,59.6176664 129.236834,59.7423332 129.2405,59.8449998 C129.244167,59.9476664 129.2515,60.0374998 129.2625,60.1144999 C129.2735,60.1914999 129.29,60.2648333 129.312,60.3344999 C129.334,60.4041665 129.367,60.4756665 129.411,60.5489999 C129.499,60.7103333 129.631,60.8405 129.807,60.9395 C129.983,61.0385 130.188334,61.088 130.423001,61.088 C130.657667,61.088 130.863001,61.0385 131.039001,60.9395 C131.215001,60.8405 131.347001,60.7103333 131.435001,60.5489999 C131.479001,60.4756665 131.512001,60.4041665 131.534001,60.3344999 C131.556001,60.2648333 131.572501,60.1914999 131.583501,60.1144999 C131.594501,60.0374998 131.601834,59.9476664 131.605501,59.8449998 C131.609167,59.7423332 131.611001,59.6176664 131.611001,59.4709997 Z M145.372002,46.3919976 C145.372002,46.6046643 145.328002,46.7879977 145.240002,46.9419977 C145.152002,47.0959977 145.034668,47.2133311 144.888002,47.2939978 C144.763335,47.3599978 144.635002,47.4021644 144.503002,47.4204978 C144.371002,47.4388312 144.176668,47.4479978 143.920002,47.4479978 L140.972001,47.4479978 L140.972001,59.4709997 C140.972001,59.6176664 140.970168,59.7423332 140.966501,59.8449998 C140.962835,59.9476664 140.955501,60.0374998 140.944501,60.1144999 C140.933501,60.1914999 140.917001,60.2648333 140.895001,60.3344999 C140.873001,60.4041665 140.840001,60.4756665 140.796001,60.5489999 C140.708001,60.7103333 140.576001,60.8405 140.400001,60.9395 C140.224001,61.0385 140.018668,61.088 139.784001,61.088 C139.549334,61.088 139.344001,61.0385 139.168001,60.9395 C138.992001,60.8405 138.860001,60.7103333 138.772001,60.5489999 C138.728001,60.4756665 138.695001,60.4041665 138.673001,60.3344999 C138.651001,60.2648333 138.634501,60.1914999 138.623501,60.1144999 C138.612501,60.0374998 138.605167,59.9476664 138.601501,59.8449998 C138.597834,59.7423332 138.596001,59.6176664 138.596001,59.4709997 L138.596001,47.4479978 L135.648,47.4479978 C135.391334,47.4479978 135.197,47.4388312 135.065,47.4204978 C134.933,47.4021644 134.804667,47.3599978 134.68,47.2939978 C134.533334,47.2133311 134.416,47.0959977 134.328,46.9419977 C134.24,46.7879977 134.196,46.6046643 134.196,46.3919976 C134.196,46.179331 134.24,45.9959975 134.328,45.8419975 C134.416,45.6879975 134.533334,45.5706641 134.68,45.4899975 C134.804667,45.4239974 134.933,45.3818308 135.065,45.3634974 C135.197,45.345164 135.391334,45.3359974 135.648,45.3359974 L143.920002,45.3359974 C144.176668,45.3359974 144.371002,45.345164 144.503002,45.3634974 C144.635002,45.3818308 144.763335,45.4239974 144.888002,45.4899975 C145.034668,45.5706641 145.152002,45.6879975 145.240002,45.8419975 C145.328002,45.9959975 145.372002,46.179331 145.372002,46.3919976 Z M151.345001,48.976998 L148.837001,55.8299992 L153.853002,55.8299992 L151.345001,48.976998 Z M148.100001,57.8539995 L147.319,59.9549998 C147.216334,60.2189999 147.132,60.4133333 147.066,60.5379999 C147,60.6626666 146.912,60.769 146.802,60.857 C146.611334,61.011 146.395,61.088 146.153,61.088 C145.984334,61.088 145.823,61.0568334 145.669,60.9945 C145.515,60.9321666 145.386667,60.846 145.284,60.736 C145.174,60.6186665 145.097,60.4994999 145.053,60.3784999 C145.009,60.2574999 144.988833,60.1328332 144.9925,60.0044998 C144.996167,59.8761664 145.018167,59.7423332 145.0585,59.6029998 C145.098833,59.4636664 145.148333,59.3169997 145.207,59.1629997 L150.003001,46.3919976 C150.083668,46.1646642 150.158834,45.9941642 150.228501,45.8804975 C150.298168,45.7668309 150.380668,45.6659975 150.476001,45.5779975 C150.593334,45.4679975 150.719834,45.3854974 150.855501,45.3304974 C150.991168,45.2754974 151.154334,45.2479974 151.345001,45.2479974 C151.535668,45.2479974 151.698835,45.2754974 151.834501,45.3304974 C151.970168,45.3854974 152.096668,45.4679975 152.214001,45.5779975 C152.309335,45.6659975 152.391835,45.7668309 152.461501,45.8804975 C152.531168,45.9941642 152.606335,46.1646642 152.687001,46.3919976 L157.483002,59.1629997 C157.541669,59.3169997 157.591169,59.4636664 157.631502,59.6029998 C157.671836,59.7423332 157.693836,59.8761664 157.697502,60.0044998 C157.701169,60.1328332 157.681002,60.2574999 157.637002,60.3784999 C157.593002,60.4994999 157.516002,60.6186665 157.406002,60.736 C157.303335,60.846 157.175002,60.9321666 157.021002,60.9945 C156.867002,61.0568334 156.705669,61.088 156.537002,61.088 C156.295002,61.088 156.078669,61.011 155.888002,60.857 C155.778002,60.769 155.690002,60.6626666 155.624002,60.5379999 C155.558002,60.4133333 155.473668,60.2189999 155.371002,59.9549998 L154.590002,57.8539995 L148.100001,57.8539995 Z M161.685001,61 L168.791002,61 C169.047668,61 169.242002,60.9908334 169.374002,60.9725 C169.506002,60.9541666 169.634335,60.912 169.759002,60.846 C169.905669,60.7653334 170.023002,60.6479999 170.111002,60.4939999 C170.199002,60.3399999 170.243002,60.1566665 170.243002,59.9439998 C170.243002,59.7313332 170.199002,59.5479998 170.111002,59.3939997 C170.023002,59.2399997 169.905669,59.1226663 169.759002,59.0419997 C169.634335,58.9759997 169.506002,58.9338331 169.374002,58.9154997 C169.242002,58.8971663 169.047668,58.8879997 168.791002,58.8879997 L162.609001,58.8879997 L162.609001,46.8649977 C162.609001,46.718331 162.607167,46.5936642 162.603501,46.4909976 C162.599834,46.388331 162.592501,46.2984976 162.581501,46.2214976 C162.570501,46.1444976 162.554001,46.0729976 162.532001,46.0069975 C162.510001,45.9409975 162.477001,45.8676641 162.433001,45.7869975 C162.345001,45.6256641 162.213001,45.4954975 162.037001,45.3964974 C161.861001,45.2974974 161.655667,45.2479974 161.421001,45.2479974 C161.186334,45.2479974 160.981,45.2974974 160.805,45.3964974 C160.629,45.4954975 160.497,45.6256641 160.409,45.7869975 C160.365,45.8676641 160.332,45.9409975 160.31,46.0069975 C160.288,46.0729976 160.2715,46.1444976 160.2605,46.2214976 C160.2495,46.2984976 160.242167,46.388331 160.2385,46.4909976 C160.234834,46.5936642 160.233,46.718331 160.233,46.8649977 L160.233,59.5479998 C160.233,59.7239998 160.247667,59.9109998 160.277,60.1089999 C160.306334,60.3069999 160.405334,60.4903333 160.574,60.6589999 C160.742667,60.8276666 160.926,60.9266666 161.124,60.956 C161.322001,60.9853334 161.509001,61 161.685001,61 Z M175.468001,59.4599997 C175.468001,59.2399997 175.425834,59.0346663 175.341501,58.8439996 C175.257167,58.653333 175.141667,58.4864996 174.995001,58.3434996 C174.848334,58.2004995 174.677834,58.0868329 174.483501,58.0024995 C174.289167,57.9181661 174.082001,57.8759995 173.862001,57.8759995 C173.642,57.8759995 173.434834,57.9181661 173.2405,58.0024995 C173.046167,58.0868329 172.875667,58.2004995 172.729,58.3434996 C172.582334,58.4864996 172.466834,58.653333 172.3825,58.8439996 C172.298167,59.0346663 172.256,59.2399997 172.256,59.4599997 C172.256,59.6799998 172.298167,59.8871664 172.3825,60.0814998 C172.466834,60.2758333 172.582334,60.4463333 172.729,60.5929999 C172.875667,60.7396666 173.046167,60.8551666 173.2405,60.9395 C173.434834,61.0238334 173.642,61.066 173.862001,61.066 C174.082001,61.066 174.289167,61.0238334 174.483501,60.9395 C174.677834,60.8551666 174.848334,60.7396666 174.995001,60.5929999 C175.141667,60.4463333 175.257167,60.2758333 175.341501,60.0814998 C175.425834,59.8871664 175.468001,59.6799998 175.468001,59.4599997 Z M180.792001,53.1679987 C180.792001,52.4199986 180.801167,51.7874985 180.819501,51.2704984 C180.837834,50.7534983 180.880001,50.3116649 180.946001,49.9449982 C181.012001,49.5783315 181.107334,49.2666647 181.232001,49.009998 C181.356667,48.7533314 181.521667,48.514998 181.727001,48.2949979 C182.013001,47.9869979 182.344834,47.7468312 182.722501,47.5744978 C183.100168,47.4021644 183.520001,47.3159978 183.982001,47.3159978 C184.715335,47.3159978 185.313001,47.5029978 185.775001,47.8769978 C186.237002,48.2509979 186.611002,48.7716646 186.897002,49.4389981 C186.985002,49.6443315 187.073002,49.8184982 187.161002,49.9614982 C187.249002,50.1044982 187.355335,50.2273316 187.480002,50.3299983 C187.560668,50.3959983 187.661502,50.4509983 187.782502,50.4949983 C187.903502,50.5389983 188.037335,50.5609983 188.184002,50.5609983 C188.499335,50.5609983 188.774335,50.4509983 189.009002,50.2309982 C189.119002,50.1209982 189.199669,49.9963316 189.251002,49.8569982 C189.302335,49.7176648 189.328002,49.5453315 189.328002,49.3399981 C189.328002,49.2006647 189.306002,49.0356646 189.262002,48.844998 C189.218002,48.6543314 189.150169,48.4489979 189.058502,48.2289979 C188.966835,48.0089979 188.844002,47.7779978 188.690002,47.5359978 C188.536002,47.2939978 188.349002,47.0556643 188.129002,46.8209977 C187.887002,46.564331 187.630335,46.3351642 187.359002,46.1334976 C187.087668,45.9318309 186.787002,45.7631641 186.457002,45.6274975 C186.127002,45.4918308 185.762168,45.3873308 185.362501,45.3139974 C184.962835,45.240664 184.517335,45.2039974 184.026001,45.2039974 C183.168001,45.2039974 182.407168,45.3433308 181.743501,45.6219975 C181.079834,45.9006641 180.495001,46.2929976 179.989001,46.7989977 C179.607667,47.1803311 179.3125,47.5726644 179.1035,47.9759979 C178.8945,48.3793313 178.738667,48.828498 178.636,49.3234981 C178.533334,49.8184982 178.471,50.3776649 178.449,51.0009984 C178.427,51.6243319 178.416,52.3466652 178.416,53.1679987 C178.416,53.9893322 178.427,54.7116656 178.449,55.3349991 C178.471,55.9583326 178.533334,56.5174993 178.636,57.0124993 C178.738667,57.5074994 178.8945,57.9566661 179.1035,58.3599996 C179.3125,58.763333 179.607667,59.1556663 179.989001,59.5369998 C180.495001,60.0429998 181.081667,60.4353333 181.749001,60.714 C182.416334,60.9926666 183.182668,61.132 184.048001,61.132 C184.884001,61.132 185.624668,61 186.270002,60.736 C186.915335,60.4719999 187.513002,60.0649998 188.063002,59.5149998 C188.371002,59.2069997 188.620335,58.8879997 188.811002,58.5579996 C189.001669,58.2279995 189.152002,57.8613329 189.262002,57.4579994 C189.372002,57.054666 189.447169,56.6036659 189.487502,56.1049992 C189.527835,55.6063325 189.548002,55.037999 189.548002,54.3999989 L189.548002,54.1689989 C189.548002,53.9929989 189.533335,53.8059988 189.504002,53.6079988 C189.474669,53.4099988 189.375669,53.2266653 189.207002,53.0579987 C189.038335,52.8893321 188.855002,52.790332 188.657002,52.7609986 C188.459002,52.7316653 188.272002,52.7169986 188.096002,52.7169986 L185.280001,52.7169986 C185.023335,52.7169986 184.829001,52.7261653 184.697001,52.7444986 C184.565001,52.762832 184.436668,52.8049987 184.312001,52.8709987 C184.165335,52.9516653 184.048001,53.0689987 183.960001,53.2229987 C183.872001,53.3769988 183.828001,53.5603322 183.828001,53.7729988 C183.828001,53.9856655 183.872001,54.1689989 183.960001,54.3229989 C184.048001,54.4769989 184.165335,54.5943323 184.312001,54.674999 C184.436668,54.740999 184.565001,54.7831656 184.697001,54.801499 C184.829001,54.8198324 185.023335,54.828999 185.280001,54.828999 L187.260002,54.828999 C187.260002,55.2396657 187.247168,55.6044991 187.221502,55.9234992 C187.195835,56.2424992 187.150002,56.5303327 187.084002,56.7869993 C187.018002,57.043666 186.928168,57.2764994 186.814502,57.4854994 C186.700835,57.6944995 186.552335,57.8906661 186.369002,58.0739995 C186.061001,58.3819996 185.712668,58.6166662 185.324001,58.7779996 C184.935335,58.9393331 184.510001,59.0199997 184.048001,59.0199997 C183.564001,59.0199997 183.125834,58.9338331 182.733501,58.7614996 C182.341167,58.5891662 182.002001,58.3489996 181.716001,58.0409995 C181.518001,57.8356661 181.358501,57.6119994 181.237501,57.3699994 C181.116501,57.1279994 181.023001,56.8254993 180.957001,56.4624993 C180.891001,56.0994992 180.847001,55.6539991 180.825001,55.125999 C180.803001,54.597999 180.792001,53.9453322 180.792001,53.1679987 Z M193.959001,59.5369998 C193.577667,59.1556663 193.2825,58.763333 193.0735,58.3599996 C192.8645,57.9566661 192.708667,57.5074994 192.606,57.0124993 C192.503334,56.5174993 192.441,55.9583326 192.419,55.3349991 C192.397,54.7116656 192.386,53.9893322 192.386,53.1679987 C192.386,52.3466652 192.397,51.6243319 192.419,51.0009984 C192.441,50.3776649 192.503334,49.8184982 192.606,49.3234981 C192.708667,48.828498 192.8645,48.3793313 193.0735,47.9759979 C193.2825,47.5726644 193.577667,47.1803311 193.959001,46.7989977 C194.465001,46.2929976 195.051667,45.9006641 195.719001,45.6219975 C196.386334,45.3433308 197.152668,45.2039974 198.018001,45.2039974 C198.883335,45.2039974 199.647835,45.3433308 200.311502,45.6219975 C200.975168,45.9006641 201.560002,46.2929976 202.066002,46.7989977 C202.447335,47.1803311 202.744335,47.5726644 202.957002,47.9759979 C203.169669,48.3793313 203.327335,48.828498 203.430002,49.3234981 C203.532669,49.8184982 203.595002,50.3776649 203.617002,51.0009984 C203.639002,51.6243319 203.650002,52.3466652 203.650002,53.1679987 C203.650002,53.9893322 203.639002,54.7116656 203.617002,55.3349991 C203.595002,55.9583326 203.532669,56.5174993 203.430002,57.0124993 C203.327335,57.5074994 203.169669,57.9566661 202.957002,58.3599996 C202.744335,58.763333 202.447335,59.1556663 202.066002,59.5369998 C201.560002,60.0429998 200.975168,60.4353333 200.311502,60.714 C199.647835,60.9926666 198.883335,61.132 198.018001,61.132 C197.152668,61.132 196.386334,60.9926666 195.719001,60.714 C195.051667,60.4353333 194.465001,60.0429998 193.959001,59.5369998 Z M195.686001,58.0299995 C195.972001,58.3379996 196.311167,58.5799996 196.703501,58.7559996 C197.095834,58.9319997 197.534001,59.0199997 198.018001,59.0199997 C198.494668,59.0199997 198.929168,58.9319997 199.321501,58.7559996 C199.713835,58.5799996 200.056668,58.3379996 200.350002,58.0299995 C200.540668,57.8246661 200.696502,57.6009994 200.817502,57.3589994 C200.938502,57.1169994 201.032002,56.8144993 201.098002,56.4514993 C201.164002,56.0884992 201.209835,55.6448325 201.235502,55.120499 C201.261168,54.5961656 201.274002,53.9453322 201.274002,53.1679987 C201.274002,52.3906652 201.261168,51.7379985 201.235502,51.2099984 C201.209835,50.6819983 201.164002,50.2364982 201.098002,49.8734982 C201.032002,49.5104981 200.938502,49.2079981 200.817502,48.965998 C200.696502,48.723998 200.540668,48.5003313 200.350002,48.2949979 C200.056668,47.9869979 199.713835,47.7468312 199.321501,47.5744978 C198.929168,47.4021644 198.494668,47.3159978 198.018001,47.3159978 C197.534001,47.3159978 197.095834,47.4021644 196.703501,47.5744978 C196.311167,47.7468312 195.972001,47.9869979 195.686001,48.2949979 C195.488001,48.5003313 195.328501,48.723998 195.207501,48.965998 C195.086501,49.2079981 194.993001,49.5104981 194.927001,49.8734982 C194.861001,50.2364982 194.817001,50.6819983 194.795001,51.2099984 C194.773001,51.7379985 194.762001,52.3906652 194.762001,53.1679987 C194.762001,53.9453322 194.773001,54.5961656 194.795001,55.120499 C194.817001,55.6448325 194.861001,56.0884992 194.927001,56.4514993 C194.993001,56.8144993 195.086501,57.1169994 195.207501,57.3589994 C195.328501,57.6009994 195.488001,57.8246661 195.686001,58.0299995 Z M212.373001,59.8779998 L216.619002,47.1179977 C216.699669,46.8613311 216.751002,46.6651643 216.773002,46.5294976 C216.795002,46.393831 216.795002,46.256331 216.773002,46.1169976 C216.751002,45.9629975 216.697835,45.8309975 216.613502,45.7209975 C216.529169,45.6109975 216.432002,45.5211641 216.322002,45.4514975 C216.212002,45.3818308 216.096502,45.3304974 215.975502,45.2974974 C215.854502,45.2644974 215.739002,45.2479974 215.629002,45.2479974 C215.482335,45.2479974 215.357668,45.2699974 215.255002,45.3139974 C215.152335,45.3579974 215.053335,45.4203308 214.958002,45.5009975 C214.855335,45.5963309 214.769168,45.7081641 214.699502,45.8364975 C214.629835,45.9648309 214.554668,46.1536642 214.474002,46.4029976 L211.075001,56.8529993 L207.676,46.4029976 C207.595334,46.1536642 207.520167,45.9648309 207.4505,45.8364975 C207.380834,45.7081641 207.294667,45.5963309 207.192,45.5009975 C207.096667,45.4203308 206.997667,45.3579974 206.895,45.3139974 C206.792334,45.2699974 206.667667,45.2479974 206.521,45.2479974 C206.411,45.2479974 206.2955,45.2644974 206.1745,45.2974974 C206.0535,45.3304974 205.938,45.3818308 205.828,45.4514975 C205.718,45.5211641 205.620833,45.6109975 205.5365,45.7209975 C205.452167,45.8309975 205.399,45.9629975 205.377,46.1169976 C205.355,46.256331 205.355,46.393831 205.377,46.5294976 C205.399,46.6651643 205.450333,46.8613311 205.531,47.1179977 L209.777001,59.8779998 C209.923667,60.3253333 210.085001,60.6259999 210.261001,60.78 C210.385668,60.8973334 210.510334,60.978 210.635001,61.022 C210.759668,61.066 210.906334,61.088 211.075001,61.088 C211.243668,61.088 211.390334,61.066 211.515001,61.022 C211.639668,60.978 211.764335,60.8973334 211.889001,60.78 C212.065001,60.6259999 212.226335,60.3253333 212.373001,59.8779998 Z M228.917002,46.3919976 C228.917002,46.179331 228.873002,45.9959975 228.785002,45.8419975 C228.697002,45.6879975 228.579668,45.5706641 228.433002,45.4899975 C228.308335,45.4239974 228.180002,45.3818308 228.048002,45.3634974 C227.916002,45.345164 227.721668,45.3359974 227.465002,45.3359974 L219.193,45.3359974 C218.936334,45.3359974 218.742,45.345164 218.61,45.3634974 C218.478,45.3818308 218.349667,45.4239974 218.225,45.4899975 C218.078334,45.5706641 217.961,45.6879975 217.873,45.8419975 C217.785,45.9959975 217.741,46.179331 217.741,46.3919976 C217.741,46.6046643 217.785,46.7879977 217.873,46.9419977 C217.961,47.0959977 218.078334,47.2133311 218.225,47.2939978 C218.349667,47.3599978 218.478,47.4021644 218.61,47.4204978 C218.742,47.4388312 218.936334,47.4479978 219.193,47.4479978 L222.141001,47.4479978 L222.141001,59.4709997 C222.141001,59.6176664 222.142834,59.7423332 222.146501,59.8449998 C222.150167,59.9476664 222.157501,60.0374998 222.168501,60.1144999 C222.179501,60.1914999 222.196001,60.2648333 222.218001,60.3344999 C222.240001,60.4041665 222.273001,60.4756665 222.317001,60.5489999 C222.405001,60.7103333 222.537001,60.8405 222.713001,60.9395 C222.889001,61.0385 223.094334,61.088 223.329001,61.088 C223.563668,61.088 223.769001,61.0385 223.945001,60.9395 C224.121001,60.8405 224.253001,60.7103333 224.341001,60.5489999 C224.385001,60.4756665 224.418001,60.4041665 224.440001,60.3344999 C224.462001,60.2648333 224.478501,60.1914999 224.489501,60.1144999 C224.500501,60.0374998 224.507835,59.9476664 224.511501,59.8449998 C224.515168,59.7423332 224.517001,59.6176664 224.517001,59.4709997 L224.517001,47.4479978 L227.465002,47.4479978 C227.721668,47.4479978 227.916002,47.4388312 228.048002,47.4204978 C228.180002,47.4021644 228.308335,47.3599978 228.433002,47.2939978 C228.579668,47.2133311 228.697002,47.0959977 228.785002,46.9419977 C228.873002,46.7879977 228.917002,46.6046643 228.917002,46.3919976 Z M232.250001,59.4599997 C232.250001,59.2399997 232.207834,59.0346663 232.123501,58.8439996 C232.039167,58.653333 231.923667,58.4864996 231.777001,58.3434996 C231.630334,58.2004995 231.459834,58.0868329 231.265501,58.0024995 C231.071167,57.9181661 230.864001,57.8759995 230.644001,57.8759995 C230.424,57.8759995 230.216834,57.9181661 230.0225,58.0024995 C229.828167,58.0868329 229.657667,58.2004995 229.511,58.3434996 C229.364334,58.4864996 229.248834,58.653333 229.1645,58.8439996 C229.080167,59.0346663 229.038,59.2399997 229.038,59.4599997 C229.038,59.6799998 229.080167,59.8871664 229.1645,60.0814998 C229.248834,60.2758333 229.364334,60.4463333 229.511,60.5929999 C229.657667,60.7396666 229.828167,60.8551666 230.0225,60.9395 C230.216834,61.0238334 230.424,61.066 230.644001,61.066 C230.864001,61.066 231.071167,61.0238334 231.265501,60.9395 C231.459834,60.8551666 231.630334,60.7396666 231.777001,60.5929999 C231.923667,60.4463333 232.039167,60.2758333 232.123501,60.0814998 C232.207834,59.8871664 232.250001,59.6799998 232.250001,59.4599997 Z M238.124001,59.4709997 L238.124001,49.9999982 L244.922002,60.0429998 C245.156668,60.3949999 245.376669,60.6571666 245.582002,60.8295 C245.787335,61.0018334 246.029335,61.088 246.308002,61.088 C246.660002,61.088 246.960669,60.9633334 247.210002,60.714 C247.342002,60.5819999 247.431836,60.4243333 247.479502,60.2409999 C247.527169,60.0576665 247.551002,59.8376664 247.551002,59.5809998 L247.551002,46.8649977 C247.551002,46.718331 247.549169,46.5936642 247.545502,46.4909976 C247.541836,46.388331 247.534502,46.2984976 247.523502,46.2214976 C247.512502,46.1444976 247.496002,46.0729976 247.474002,46.0069975 C247.452002,45.9409975 247.419002,45.8676641 247.375002,45.7869975 C247.287002,45.6256641 247.155002,45.4954975 246.979002,45.3964974 C246.803002,45.2974974 246.597669,45.2479974 246.363002,45.2479974 C246.128335,45.2479974 245.923002,45.2974974 245.747002,45.3964974 C245.571002,45.4954975 245.439002,45.6256641 245.351002,45.7869975 C245.307002,45.8676641 245.274002,45.9409975 245.252002,46.0069975 C245.230002,46.0729976 245.213502,46.1444976 245.202502,46.2214976 C245.191502,46.2984976 245.184168,46.388331 245.180502,46.4909976 C245.176835,46.5936642 245.175002,46.718331 245.175002,46.8649977 L245.175002,56.3359992 L238.377001,46.2929976 C238.142334,45.9409975 237.922334,45.6788309 237.717001,45.5064975 C237.511667,45.334164 237.269667,45.2479974 236.991001,45.2479974 C236.639,45.2479974 236.338334,45.372664 236.089,45.6219975 C235.957,45.7539975 235.867167,45.9134975 235.8195,46.1004976 C235.771834,46.2874976 235.748,46.509331 235.748,46.7659977 L235.748,59.4709997 C235.748,59.6176664 235.749834,59.7423332 235.7535,59.8449998 C235.757167,59.9476664 235.7645,60.0374998 235.7755,60.1144999 C235.7865,60.1914999 235.803,60.2648333 235.825,60.3344999 C235.847,60.4041665 235.88,60.4756665 235.924,60.5489999 C236.012,60.7103333 236.144,60.8405 236.32,60.9395 C236.496,61.0385 236.701334,61.088 236.936001,61.088 C237.170667,61.088 237.376001,61.0385 237.552001,60.9395 C237.728001,60.8405 237.860001,60.7103333 237.948001,60.5489999 C237.992001,60.4756665 238.025001,60.4041665 238.047001,60.3344999 C238.069001,60.2648333 238.085501,60.1914999 238.096501,60.1144999 C238.107501,60.0374998 238.114834,59.9476664 238.118501,59.8449998 C238.122167,59.7423332 238.124001,59.6176664 238.124001,59.4709997 Z M259.211002,45.3359974 L252.303,45.3359974 C252.046334,45.3359974 251.852,45.345164 251.72,45.3634974 C251.588,45.3818308 251.459667,45.4239974 251.335,45.4899975 C251.188334,45.5706641 251.071,45.6879975 250.983,45.8419975 C250.895,45.9959975 250.851,46.179331 250.851,46.3919976 C250.851,46.6046643 250.895,46.7879977 250.983,46.9419977 C251.071,47.0959977 251.188334,47.2133311 251.335,47.2939978 C251.459667,47.3599978 251.588,47.4021644 251.72,47.4204978 C251.852,47.4388312 252.046334,47.4479978 252.303,47.4479978 L257.880001,47.4479978 L250.95,58.7229996 C250.803334,58.9576663 250.698834,59.1519997 250.6365,59.3059997 C250.574167,59.4599997 250.543,59.6176664 250.543,59.7789998 C250.543,60.1236665 250.660334,60.4133333 250.895,60.6479999 C251.056334,60.8093334 251.2415,60.9083334 251.4505,60.945 C251.6595,60.9816666 251.892334,61 252.149,61 L259.376002,61 C259.632668,61 259.827002,60.9908334 259.959002,60.9725 C260.091002,60.9541666 260.219335,60.912 260.344002,60.846 C260.490668,60.7653334 260.608002,60.6479999 260.696002,60.4939999 C260.784002,60.3399999 260.828002,60.1566665 260.828002,59.9439998 C260.828002,59.7313332 260.784002,59.5479998 260.696002,59.3939997 C260.608002,59.2399997 260.490668,59.1226663 260.344002,59.0419997 C260.219335,58.9759997 260.091002,58.9338331 259.959002,58.9154997 C259.827002,58.8971663 259.632668,58.8879997 259.376002,58.8879997 L253.480001,58.8879997 L260.421002,47.6129978 C260.553002,47.4003312 260.652002,47.2114977 260.718002,47.0464977 C260.784002,46.8814977 260.817002,46.718331 260.817002,46.5569976 C260.817002,46.212331 260.699668,45.9226641 260.465002,45.6879975 C260.311002,45.5266641 260.127668,45.4276641 259.915002,45.3909974 C259.702335,45.3543308 259.467668,45.3359974 259.211002,45.3359974 Z" transform="translate(-94 -45)"/>
</svg>
