<svg xmlns="http://www.w3.org/2000/svg" width="18" height="17" viewBox="0 0 18 17">
  <path fill="#FFF" fill-rule="evenodd" stroke="#FFF" stroke-width=".727" d="M11.4091236,10.7021236 C12.378607,9.57119134 12.965,8.10271598 12.965,6.5 C12.965,2.9355 10.0645,0.035 6.5,0.035 C2.9355,0.035 0.035,2.9355 0.035,6.5 C0.035,10.0645 2.9355,12.965 6.5,12.965 C8.10271598,12.965 9.57119134,12.378607 10.7021236,11.4091236 L15.1465,15.8535 L15.8535,15.1465 L11.4091236,10.7021236 Z M6.5,0.965 C3.448,0.965 0.965,3.448 0.965,6.5 C0.965,9.552 3.448,12.035 6.5,12.035 C9.552,12.035 12.035,9.552 12.035,6.5 C12.035,3.448 9.552,0.965 6.5,0.965 L6.5,0.965 Z" transform="translate(1 1)"/>
</svg>
